<svg xmlns:rdf="http://www.w3.org/1999/02/22-rdf-syntax-ns#" xmlns="http://www.w3.org/2000/svg" version="1.1" xmlns:cc="http://creativecommons.org/ns#" xmlns:dc="http://purl.org/dc/elements/1.1/" viewBox="0 0 1700 1700">
 <path d="m850 9.998a840 840 0 0 0 -840 840 840 840 0 0 0 840 840 840 840 0 0 0 840 -840 840 840 0 0 0 -840 -840zm0 95.312a744.69 744.69 0 0 1 744.7 744.69 744.69 744.69 0 0 1 -744.7 744.7 744.69 744.69 0 0 1 -744.69 -744.7 744.69 744.69 0 0 1 744.69 -744.69zm-416 555.69c-8.67 0-16.33 3.33-23 10l-50 50c-6.67 6.67-10 14.33-10 23s3.33 16.33 10 23l466 466c6.67 6.7 14.33 10 23 10s16.33-3.3 23-10l466-466c6.7-6.67 10-14.33 10-23s-3.3-16.33-10-23l-50-50c-6.7-6.67-14.3-10-23-10s-16.3 3.33-23 10l-393 393-393-393c-6.67-6.67-14.33-10-23-10z"/>
</svg>
